PathFileType	4	(X/Y/Z)	Patient4_TMGait_0pt4_01_left_02.trc.trc
DataRate	CameraRate	NumFrames	NumMarkers	Units	OrigDataRate	OrigDataStartFrame	OrigNumFrames
74.468085106383	74.468085106383	5	33	mm	74.468085106383	106	       141
Frame#	Time	Sacral			L.Shoulder			Chest			R.Shoulder			Neck			R.ASIS			L.ASIS			R.Thigh.Superior			R.Thigh.Lateral			R.Thigh.Inferior			R.Patella			L.Thigh.Superior			L.Thigh.Lateral			L.Thigh.Inferior			L.Patella			L.Shank.Superior			L.Shank.Lateral			L.Shank.Inferior			R.Shank.Superior			R.Shank.Lateral			R.Shank.Inferior			R.Heel			R.Midfoot.Superior			R.Midfoot.Lateral			R.Toe			L.Heel			L.Midfoot.Lateral			L.Midfoot.Superior			L.Toe			L.Elbow			L.Wrist			R.Elbow			R.Wrist			
		X1	Y1	Z1	X2	Y2	Z2	X3	Y3	Z3	X4	Y4	Z4	X5	Y5	Z5	X6	Y6	Z6	X7	Y7	Z7	X8	Y8	Z8	X9	Y9	Z9	X10	Y10	Z10	X11	Y11	Z11	X12	Y12	Z12	X13	Y13	Z13	X14	Y14	Z14	X15	Y15	Z15	X16	Y16	Z16	X17	Y17	Z17	X18	Y18	Z18	X19	Y19	Z19	X20	Y20	Z20	X21	Y21	Z21	X22	Y22	Z22	X23	Y23	Z23	X24	Y24	Z24	X25	Y25	Z25	X26	Y26	Z26	X27	Y27	Z27	X28	Y28	Z28	X29	Y29	Z29	X30	Y30	Z30	X31	Y31	Z31	X32	Y32	Z32	X33	Y33	Z33	

106	2.800000000000	871.713906882139	1009.270574763270	560.224188482316	1037.111626648780	1432.586378410841	349.566023231941	1158.270324034402	1362.622747340428	496.152840389322	1103.899343458277	1443.641800749921	678.395625689170	1060.419730375080	1497.958432267645	501.866235319598	1114.563461671575	941.904259794058	642.995775021579	1062.184408208157	969.480356940342	373.639898796732	1143.953307191310	739.581840812544	604.202787460219	1066.784465785133	632.129745321062	672.263859043498	1130.199522004627	579.815541401093	581.298763320186	1127.176273254759	494.211269207626	584.760993336676	1151.202636328080	793.998166009739	396.645867383616	1108.300637729541	666.411455427375	317.626964455580	1216.594558809918	608.402909245518	371.730177527474	1238.576929625695	528.411224703294	361.118869381258	1194.641208906935	454.054838404516	351.062639725309	1077.781959003799	364.770681781414	305.879312089778	1121.088740697994	237.294662707847	350.486211707684	1100.956780991935	405.082107452900	593.454103930224	1037.097024060339	299.855347563410	660.772212276651	1069.281481595741	206.820801388411	590.337352887491	931.390739279307	42.788395374041	571.580197665874	1105.419994005822	97.611293412101	591.054833474591	1021.422090259328	37.102736932250	638.396796896157	1227.603094832991	45.105209486515	606.881863005998	976.535150502072	101.159934493268	394.964340098849	1038.140558528436	89.154099118340	306.434965239101	1133.609828518907	134.604097692886	322.180017158411	1243.729526054187	64.803598281002	276.098702293262	963.763809472533	1079.624061350766	255.830344367191	1007.567883430091	824.944474382091	227.288355530977	1144.251528090115	1107.105512011257	820.815206783013	1352.074052409212	964.864755865482	767.328984790929	
107	2.813428571429	871.335222569066	1009.798273271564	561.949319952111	1036.153984318144	1432.843639117858	350.874927849304	1158.186246344244	1362.514237520409	496.536651810286	1105.324538387868	1443.694094613284	679.209842411819	1060.597095976120	1498.082558499394	503.091862063733	1114.340475773305	941.684042918415	643.186187305395	1060.875572476499	969.890186513764	374.127077969087	1141.843446357401	739.036746019688	604.495843921221	1064.193539331111	632.000510631693	673.005590171590	1126.865587749587	579.283836021643	581.915790525679	1123.233874387765	493.796028612970	585.547557151195	1148.661458801967	793.579862238689	397.179175240110	1105.464125930966	666.418625104919	317.644090882075	1212.777368155812	607.761934830731	372.839361014450	1235.917346582176	530.235793958564	362.093297029032	1196.361105075924	455.797598893947	351.337390162894	1086.961877294815	358.899074843660	303.841347935185	1138.427698134740	234.303066605545	348.892333192902	1096.741616249350	404.765246447724	594.085172402674	1032.511088190965	299.684262160726	661.467513357298	1064.331912418288	206.608323949379	590.735976296642	925.998775629831	42.819841602061	571.618342451809	1100.091970851285	97.548130642026	591.238824242266	1016.024677773191	37.083927202340	638.467646582455	1222.243994694016	44.818295582081	606.939213114408	1003.183555027054	88.276564947334	390.877892349965	1067.117536750797	80.292245376658	303.525962728796	1159.147135783998	132.144134700059	320.595395218238	1274.645027096979	69.815495118394	276.788826712705	958.151026742797	1080.809545346488	257.944103639849	995.434133703796	825.352686272407	229.002026485057	1150.876686651432	1107.482139306229	820.113749485338	1362.585926546320	973.152454043267	762.551834324124	
108	2.826857142857	870.982424930660	1010.193873957630	563.413276114348	1035.234328320132	1433.071266907286	352.072245289054	1158.050047745417	1362.376039201552	496.877166211477	1106.522493507412	1443.635747244267	679.956292371960	1060.705627610146	1498.152856575077	504.243293449025	1114.168400556732	941.469482463396	643.272550344599	1059.744417703953	970.154664745957	374.483233542652	1139.858017742946	738.508029520939	604.751275950018	1061.700153118054	631.853224086900	673.662690401403	1123.672280999294	578.744741716386	582.503307135206	1119.392955423279	493.355327326101	586.306685930391	1145.954405712287	792.627756893842	397.643507613152	1102.381747923827	666.121723302859	317.390237407048	1208.451188428528	606.521713410444	373.954058038726	1232.673712482998	531.602330107848	363.121243174255	1197.447552671668	457.387269637193	351.640540160274	1095.950995135691	353.460352133349	301.643126982815	1155.082900429351	232.234792289610	347.423520103766	1092.621778106771	404.432607800881	594.689002576147	1027.974834718481	299.526980876266	662.162444219582	1059.427371760341	206.389417026753	591.129200937090	920.603171143215	42.863401246251	571.655886894896	1094.771826715906	97.477506588630	591.410206702098	1010.630830141848	37.071503966149	638.531531622972	1216.896126523602	44.510501626870	607.006983124975	1029.298445119924	77.506429243166	386.726373932576	1095.639576145117	73.013892988365	300.870419600898	1184.011826870438	130.686492609851	319.373789784581	1304.255403190271	75.373331904347	278.600108584705	952.659257267750	1082.019328206604	259.941945037321	984.196381959970	826.017701798369	230.707519105496	1157.200591512969	1107.682510006590	818.994551050217	1372.307093059821	981.054412299225	757.514471541118	
109	2.840285714286	870.666129619959	1010.454189042985	564.604985742838	1034.349062162722	1433.279698556726	353.144760727421	1157.849193753140	1362.228763958661	497.175328100046	1107.457828487682	1443.484233582574	680.630269791056	1060.727654292118	1498.182330142112	505.308886944431	1114.052981350167	941.276310160160	643.284893526434	1058.801770785085	970.283185472309	374.715237433181	1138.016217960207	737.999956056507	604.979255102758	1059.300452022619	631.695315546646	674.228192320969	1120.621170129189	578.201650868778	583.057285825095	1115.659754952789	492.895296466867	587.024739627014	1143.180035216924	791.247409039026	398.027529037976	1099.180568554261	665.584048237848	316.897259678879	1203.849348097735	604.842758656158	374.985227379978	1229.053064530751	532.573757051969	364.138212126418	1197.995741574251	458.841176658064	351.929182112305	1104.520053492881	348.621040915141	299.454208285392	1170.702854905242	231.110222773782	346.137450066739	1088.592866559985	404.091360681624	595.251457492432	1023.485502201477	299.392168899877	662.839324953044	1054.567513992467	206.172188994547	591.507205820443	915.207547929614	42.919334548327	571.692601596323	1089.456890133158	97.397330674888	591.558194182739	1005.240372000047	37.066355831418	638.586997100053	1211.556733568024	44.192369131776	607.083152422874	1054.230906337944	68.997491207814	382.804914188791	1122.971257367369	67.377622113461	298.652027096044	1207.644827645875	130.196763239074	318.547966453800	1331.944722218267	81.250233396854	281.361383222828	947.333738997151	1083.247258633815	261.817684853252	973.887870446563	826.872701310087	232.375232816251	1163.220802772738	1107.733982870154	817.470783537158	1381.239023932973	988.500069331134	752.254316274085	
110	2.853714285714	870.398930127519	1010.579891939649	565.517114726722	1033.488219664811	1433.480825700664	354.081657926897	1157.570705129836	1362.095654167609	497.429874042488	1108.103335239904	1443.260977044661	681.226290687071	1060.643258581330	1498.185022932971	506.278052417930	1114.000891679249	941.119965070703	643.249315919603	1058.055613852514	970.290171786131	374.827431696668	1136.327093510329	737.514782971860	605.184080936879	1056.985569571087	631.535363897438	674.697092838505	1117.704528266792	577.658761521156	583.571940972937	1112.037429994101	492.422887151577	587.689398831381	1140.458819631033	789.569935177731	398.306809204112	1095.985197150296	664.858240287996	316.230286971749	1199.227954709423	602.896980301417	375.842111911183	1225.277968788024	533.210893060919	365.076650890653	1198.116029735660	460.150853119693	352.163129178806	1112.414942209027	344.470453401662	297.457739725112	1184.947039986846	230.837045453398	345.078855323078	1084.645095420093	403.748402659648	595.759744634595	1019.036904377199	299.286821002929	663.478075436567	1049.749650533594	205.964202745233	591.861684843803	909.814512574441	42.987618975462	571.728337211265	1084.145482438375	97.308915074993	591.677906600796	999.852675850826	37.068967542741	638.633199256622	1206.222086935355	43.875170528572	607.164904977027	1077.337056339294	62.705798367477	379.406966382203	1148.349849518539	63.293572294933	297.017686532961	1229.474846373358	130.522469594190	318.111787097077	1357.111459345376	87.134720591135	284.775043923847	942.228120946472	1084.485603767660	263.557582847793	964.529965970935	827.856819071905	233.972198502361	1168.927161281623	1107.673575930968	815.569490090315	1389.382685777405	995.434885363886	746.810882665258	
